<?xml version="1.0" encoding="UTF-8"?>
<!DOCTYPE svg PUBLIC "-//W3C//DTD SVG 1.1//EN" "http://www.w3.org/Graphics/SVG/1.1/DTD/svg11.dtd">
<svg xmlns="http://www.w3.org/2000/svg" version="1.1" width="500px" height="500px" style="shape-rendering:geometricPrecision; text-rendering:geometricPrecision; image-rendering:optimizeQuality; fill-rule:evenodd; clip-rule:evenodd" xmlns:xlink="http://www.w3.org/1999/xlink">
<g><path style="opacity:1" fill="#ee7622" d="M 465.5,30.5 C 465.709,31.9217 466.209,33.255 467,34.5C 467.5,124.499 467.667,214.499 467.5,304.5C 467.103,318.418 464.436,331.751 459.5,344.5C 458.778,344.082 458.278,343.416 458,342.5C 456.547,345.298 455.547,348.298 455,351.5C 454.167,352.5 453.333,353.5 452.5,354.5C 451.264,353.754 449.93,353.421 448.5,353.5C 448.64,356.733 447.473,359.399 445,361.5C 444.45,364.798 443.95,367.798 443.5,370.5C 442.808,369.975 442.308,369.308 442,368.5C 441.682,370.061 440.849,371.228 439.5,372C 440.705,374.234 440.039,375.901 437.5,377C 438.554,378.388 438.72,379.888 438,381.5C 433.729,382.056 430.563,383.556 428.5,386C 429.458,387.147 429.125,388.147 427.5,389C 428.649,390.604 428.649,392.27 427.5,394C 427.905,394.945 428.572,395.612 429.5,396C 427.744,396.202 426.078,396.702 424.5,397.5C 424.709,398.086 425.043,398.586 425.5,399C 422.745,400.968 420.578,403.468 419,406.5C 418.195,404.099 417.362,404.266 416.5,407C 416.833,407.333 417.167,407.667 417.5,408C 415.52,409.825 413.187,410.659 410.5,410.5C 410.64,412.124 409.973,413.29 408.5,414C 409.308,414.308 409.975,414.808 410.5,415.5C 408.022,417.78 406.022,420.447 404.5,423.5C 403.158,422.098 402.324,422.431 402,424.5C 401.667,423.833 401.333,423.167 401,422.5C 400.784,424.384 400.117,426.051 399,427.5C 398.507,424.015 397.007,423.515 394.5,426C 394.491,427.73 394.158,429.563 393.5,431.5C 392.335,432.491 391.168,433.491 390,434.5C 388.989,434.108 388.489,433.441 388.5,432.5C 387.186,433.313 386.019,434.313 385,435.5C 384.282,434.549 383.449,434.383 382.5,435C 381.476,437.548 380.31,440.048 379,442.5C 378.612,441.572 377.945,440.905 377,440.5C 374.865,441.127 372.698,441.627 370.5,442C 369.061,442.991 368.061,444.324 367.5,446C 368.369,447.465 367.869,448.631 366,449.5C 364.715,449.05 363.548,448.383 362.5,447.5C 361.41,448.391 361.41,449.391 362.5,450.5C 361.5,451.5 360.5,452.5 359.5,453.5C 358.5,452.167 357.5,452.167 356.5,453.5C 355.808,452.975 355.308,452.308 355,451.5C 353.838,453.928 352.171,454.595 350,453.5C 348.7,454.707 347.2,455.374 345.5,455.5C 345.5,456.5 345.5,457.5 345.5,458.5C 341.508,458.021 337.508,458.688 333.5,460.5C 332.808,459.975 332.308,459.308 332,458.5C 330.666,462.104 328.166,463.271 324.5,462C 325.696,461.346 325.696,460.846 324.5,460.5C 321.857,460.804 319.024,461.47 316,462.5C 315.107,461.289 314.274,461.289 313.5,462.5C 315.872,463.347 317.872,464.681 319.5,466.5C 318.975,467.192 318.308,467.692 317.5,468C 309.507,468.5 301.507,468.666 293.5,468.5C 217.166,468.333 140.833,468.5 64.5,469C 57.654,469.172 50.9874,469.672 44.5,470.5C 40.8931,470.435 38.5597,468.769 37.5,465.5C 37.5,367.167 37.5,268.833 37.5,170.5C 43.0454,117.873 68.3787,78.0398 113.5,51C 135.958,38.961 159.958,31.961 185.5,30C 279.001,29.1676 372.334,29.3342 465.5,30.5 Z M 333.5,342.5 C 319.34,362.288 300.007,372.622 275.5,373.5C 226.506,374.574 177.506,374.74 128.5,374C 127.748,373.329 127.414,372.496 127.5,371.5C 150.499,356.004 166.999,335.337 177,309.5C 178.908,298.572 180.241,287.572 181,276.5C 181.333,248.833 181.667,221.167 182,193.5C 182.272,188.451 182.772,183.451 183.5,178.5C 194.477,140.064 220.143,121.231 260.5,122C 287.5,121.333 314.5,121.333 341.5,122C 343.519,122.45 345.352,123.283 347,124.5C 347.948,179.865 348.281,234.198 348,287.5C 347.058,306.938 342.225,325.271 333.5,342.5 Z"/></g>
<g><path style="opacity:0.176" fill="#966539" d="M 465.5,30.5 C 466.79,31.0577 467.623,32.0577 468,33.5C 468.256,36.557 468.756,39.557 469.5,42.5C 469.627,118.28 469.46,194.28 469,270.5C 468.831,282.007 468.331,293.341 467.5,304.5C 467.667,214.499 467.5,124.499 467,34.5C 466.209,33.255 465.709,31.9217 465.5,30.5 Z"/></g>
<g><path style="opacity:0.302" fill="#915e36" d="M 37.5,170.5 C 37.5,268.833 37.5,367.167 37.5,465.5C 36.6724,459.681 36.1724,453.681 36,447.5C 35.3333,363.167 35.3333,278.833 36,194.5C 36.1708,186.323 36.6708,178.323 37.5,170.5 Z"/></g>
<g><path style="opacity:0.999" fill="#d67127" d="M 183.5,178.5 C 182.772,183.451 182.272,188.451 182,193.5C 181.667,221.167 181.333,248.833 181,276.5C 180.241,287.572 178.908,298.572 177,309.5C 166.999,335.337 150.499,356.004 127.5,371.5C 125.348,372.077 125.015,373.244 126.5,375C 174.5,375.667 222.5,375.667 270.5,375C 272.382,374.802 274.048,374.302 275.5,373.5C 300.007,372.622 319.34,362.288 333.5,342.5C 331.807,346.737 329.64,350.737 327,354.5C 322.487,358.257 317.987,361.924 313.5,365.5C 310.29,367.604 306.957,369.437 303.5,371C 302.134,373.438 302.634,373.938 305,372.5C 307.882,372.797 308.548,373.797 307,375.5C 305.419,373.425 303.585,373.425 301.5,375.5C 301.985,378.112 301.151,378.112 299,375.5C 297.302,376.733 295.302,377.4 293,377.5C 291.167,377.167 289.333,376.833 287.5,376.5C 288.025,375.808 288.692,375.308 289.5,375C 284.81,374.668 280.143,375.002 275.5,376C 225.168,376.5 174.834,376.667 124.5,376.5C 124.657,375.127 124.49,373.793 124,372.5C 122.113,374.062 121.28,375.729 121.5,377.5C 118.75,376.284 117.583,374.284 118,371.5C 118.419,372.672 119.085,373.672 120,374.5C 120.333,372.167 120.667,369.833 121,367.5C 122.706,366.692 123.539,365.359 123.5,363.5C 124.873,363.657 126.207,363.49 127.5,363C 125.071,362.549 124.904,361.715 127,360.5C 128.943,360.959 130.276,359.959 131,357.5C 131.333,357.833 131.667,358.167 132,358.5C 133.298,355.576 135.298,353.242 138,351.5C 138.945,351.905 139.612,352.572 140,353.5C 140.986,351.222 141.82,348.889 142.5,346.5C 144.707,345.365 147.04,344.699 149.5,344.5C 149.351,343.448 149.517,342.448 150,341.5C 150.654,342.696 151.154,342.696 151.5,341.5C 147.689,340.262 147.689,339.596 151.5,339.5C 151.351,338.448 151.517,337.448 152,336.5C 153.011,337.337 154.178,337.67 155.5,337.5C 155.5,336.5 155.5,335.5 155.5,334.5C 158.361,334.487 159.361,333.321 158.5,331C 161.943,330.779 162.276,329.779 159.5,328C 160.793,327.51 162.127,327.343 163.5,327.5C 163.566,324.336 164.566,321.502 166.5,319C 165.497,316.496 166.33,314.662 169,313.5C 170.059,313.63 170.892,314.13 171.5,315C 170.289,315.893 170.289,316.726 171.5,317.5C 173.545,311.86 175.379,306.193 177,300.5C 178.102,262.84 179.102,225.173 180,187.5C 180.339,184.964 180.839,182.464 181.5,180C 181.836,178.97 182.503,178.47 183.5,178.5 Z"/></g>
<g><path style="opacity:0.139" fill="#c88047" d="M 127.5,371.5 C 127.414,372.496 127.748,373.329 128.5,374C 177.506,374.74 226.506,374.574 275.5,373.5C 274.048,374.302 272.382,374.802 270.5,375C 222.5,375.667 174.5,375.667 126.5,375C 125.015,373.244 125.348,372.077 127.5,371.5 Z"/></g>
<g><path style="opacity:0.999" fill="#e27526" d="M 459.5,344.5 C 440.95,405.216 401.617,445.716 341.5,466C 326.985,468.971 312.319,470.471 297.5,470.5C 296.167,469.833 294.833,469.167 293.5,468.5C 301.507,468.666 309.507,468.5 317.5,468C 318.308,467.692 318.975,467.192 319.5,466.5C 317.872,464.681 315.872,463.347 313.5,462.5C 314.274,461.289 315.107,461.289 316,462.5C 319.024,461.47 321.857,460.804 324.5,460.5C 325.696,460.846 325.696,461.346 324.5,462C 328.166,463.271 330.666,462.104 332,458.5C 332.308,459.308 332.808,459.975 333.5,460.5C 337.508,458.688 341.508,458.021 345.5,458.5C 345.5,457.5 345.5,456.5 345.5,455.5C 347.2,455.374 348.7,454.707 350,453.5C 352.171,454.595 353.838,453.928 355,451.5C 355.308,452.308 355.808,452.975 356.5,453.5C 357.5,452.167 358.5,452.167 359.5,453.5C 360.5,452.5 361.5,451.5 362.5,450.5C 361.41,449.391 361.41,448.391 362.5,447.5C 363.548,448.383 364.715,449.05 366,449.5C 367.869,448.631 368.369,447.465 367.5,446C 368.061,444.324 369.061,442.991 370.5,442C 372.698,441.627 374.865,441.127 377,440.5C 377.945,440.905 378.612,441.572 379,442.5C 380.31,440.048 381.476,437.548 382.5,435C 383.449,434.383 384.282,434.549 385,435.5C 386.019,434.313 387.186,433.313 388.5,432.5C 388.489,433.441 388.989,434.108 390,434.5C 391.168,433.491 392.335,432.491 393.5,431.5C 394.158,429.563 394.491,427.73 394.5,426C 397.007,423.515 398.507,424.015 399,427.5C 400.117,426.051 400.784,424.384 401,422.5C 401.333,423.167 401.667,423.833 402,424.5C 402.324,422.431 403.158,422.098 404.5,423.5C 406.022,420.447 408.022,417.78 410.5,415.5C 409.975,414.808 409.308,414.308 408.5,414C 409.973,413.29 410.64,412.124 410.5,410.5C 413.187,410.659 415.52,409.825 417.5,408C 417.167,407.667 416.833,407.333 416.5,407C 417.362,404.266 418.195,404.099 419,406.5C 420.578,403.468 422.745,400.968 425.5,399C 425.043,398.586 424.709,398.086 424.5,397.5C 426.078,396.702 427.744,396.202 429.5,396C 428.572,395.612 427.905,394.945 427.5,394C 428.649,392.27 428.649,390.604 427.5,389C 429.125,388.147 429.458,387.147 428.5,386C 430.563,383.556 433.729,382.056 438,381.5C 438.72,379.888 438.554,378.388 437.5,377C 440.039,375.901 440.705,374.234 439.5,372C 440.849,371.228 441.682,370.061 442,368.5C 442.308,369.308 442.808,369.975 443.5,370.5C 443.95,367.798 444.45,364.798 445,361.5C 447.473,359.399 448.64,356.733 448.5,353.5C 449.93,353.421 451.264,353.754 452.5,354.5C 453.333,353.5 454.167,352.5 455,351.5C 455.547,348.298 456.547,345.298 458,342.5C 458.278,343.416 458.778,344.082 459.5,344.5 Z"/></g>
<g><path style="opacity:0.535" fill="#df8e46" d="M 293.5,468.5 C 294.833,469.167 296.167,469.833 297.5,470.5C 213.167,470.5 128.833,470.5 44.5,470.5C 50.9874,469.672 57.654,469.172 64.5,469C 140.833,468.5 217.166,468.333 293.5,468.5 Z"/></g>
</svg>
